HIERARCHY
ROOT SpineBase
{
  OFFSET 0.000000 0.000000 0.000000
  CHANNELS 6 Xposition Yposition Zposition Zrotation Xrotation Yrotation
  JOINT SpineMid
  {
    OFFSET 0.000000 25.420744 0.000000
    CHANNELS 3 Zrotation Xrotation Yrotation
    JOINT SpineShoulder
    {
      OFFSET -0.093840 19.199673 -0.487157
      CHANNELS 3 Zrotation Xrotation Yrotation
      JOINT Neck
      {
        OFFSET 0.000224 6.459914 -0.454233
        CHANNELS 3 Zrotation Xrotation Yrotation
        JOINT Head
        {
          OFFSET 2.090342 14.501950 -1.278056
          CHANNELS 3 Zrotation Xrotation Yrotation
          End Site
          {
            OFFSET 0 0 0
          }
        }
      }
      JOINT ShoulderLeft
      {
        OFFSET -13.774926 0.091348 -6.820580
        CHANNELS 3 Zrotation Xrotation Yrotation
        JOINT ElbowLeft
        {
          OFFSET -2.377774 -19.066250 -6.311165
          CHANNELS 3 Zrotation Xrotation Yrotation
          JOINT WristLeft
          {
            OFFSET 13.306619 -12.032823 -12.910797
            CHANNELS 3 Zrotation Xrotation Yrotation
            JOINT HandLeft
            {
              OFFSET 4.129948 -5.906650 -0.536867
              CHANNELS 3 Zrotation Xrotation Yrotation
              JOINT HandTipLeft
              {
                OFFSET 7.373396 -3.058878 -0.304097
                CHANNELS 3 Zrotation Xrotation Yrotation
                End Site
                {
                  OFFSET 0 0 0
                }
              }
              JOINT ThumbLeft
              {
                OFFSET -0.146363 0.891390 -5.342985
                CHANNELS 3 Zrotation Xrotation Yrotation
                End Site
                {
                  OFFSET 0 0 0
                }
              }
            }
          }
        }
      }
      JOINT ShoulderRight
      {
        OFFSET 16.580382 -1.250219 2.802084
        CHANNELS 3 Zrotation Xrotation Yrotation
        JOINT ElbowRight
        {
          OFFSET 2.222338 -22.039171 -2.485280
          CHANNELS 3 Zrotation Xrotation Yrotation
          JOINT WristRight
          {
            OFFSET -2.305702 -12.666675 -17.758846
            CHANNELS 3 Zrotation Xrotation Yrotation
            JOINT HandRight
            {
              OFFSET -0.360559 -2.691105 -4.497361
              CHANNELS 3 Zrotation Xrotation Yrotation
              JOINT HandTipRight
              {
                OFFSET -2.131896 -2.049665 -5.823549
                CHANNELS 3 Zrotation Xrotation Yrotation
                End Site
                {
                  OFFSET 0 0 0
                }
              }
              JOINT ThumbRight
              {
                OFFSET 2.016907 -1.480622 -2.392554
                CHANNELS 3 Zrotation Xrotation Yrotation
                End Site
                {
                  OFFSET 0 0 0
                }
              }
            }
          }
        }
      }
    }
  }
  JOINT HipLeft
  {
    OFFSET -6.345822 1.721323 -5.212034
    CHANNELS 3 Zrotation Xrotation Yrotation
    JOINT KneeLeft
    {
      OFFSET -1.798452 3.187137 -30.622165
      CHANNELS 3 Zrotation Xrotation Yrotation
      JOINT AnkleLeft
      {
        OFFSET 8.224793 -31.358608 -3.772489
        CHANNELS 3 Zrotation Xrotation Yrotation
        JOINT FootLeft
        {
          OFFSET 0.558768 -3.664192 -11.148555
          CHANNELS 3 Zrotation Xrotation Yrotation
          End Site
          {
            OFFSET 0 0 0
          }
        }
      }
    }
  }
  JOINT HipRight
  {
    OFFSET 7.451175 1.510040 -0.742240
    CHANNELS 3 Zrotation Xrotation Yrotation
    JOINT KneeRight
    {
      OFFSET 20.016135 0.669471 -22.936337
      CHANNELS 3 Zrotation Xrotation Yrotation
      JOINT AnkleRight
      {
        OFFSET -7.670075 -30.677854 -8.654733
        CHANNELS 3 Zrotation Xrotation Yrotation
        JOINT FootRight
        {
          OFFSET 10.026659 -4.068263 -8.029488
          CHANNELS 3 Zrotation Xrotation Yrotation
          End Site
          {
            OFFSET 0 0 0
          }
        }
      }
    }
  }
}
MOTION
Frames: 11
Frame Time: 0.033333
-67.359749 33.071986 349.475176 -0.575546 -2.698162 -17.160814 -0.532534 -0.826766 17.108006 -0.322036 -0.294151 -0.060619 19.360483 0.252546 1.550947 0.000000 0.000000 0.000000 12.908421 12.062775 -6.171676 1.974555 15.545652 11.767107 24.885030 17.241448 13.096668 -71.649758 0.742301 14.415389 0.000000 0.000000 0.000000 0.000000 0.000000 0.000000 20.184750 12.724156 -3.686585 -22.998484 16.816197 1.556175 -12.232805 0.423300 14.280220 11.182968 -31.825662 -20.179285 0.000000 0.000000 0.000000 0.000000 0.000000 0.000000 -1.818653 5.882277 12.280565 0.709646 -1.387411 5.535337 5.139752 -7.147487 -18.973316 0.000000 0.000000 0.000000 0.434858 4.343337 13.125649 -0.160572 -1.003891 3.656117 -11.435547 8.436867 44.782162 0.000000 0.000000 0.000000
-67.311685 33.044842 349.560901 -0.597237 -2.790067 -17.460464 -0.608426 -0.781335 17.406489 -0.327443 -0.265661 -0.064223 19.441149 0.138009 1.589219 0.000000 0.000000 0.000000 13.526408 12.314146 -6.468673 0.056025 14.334283 12.722812 29.551624 19.220251 12.665090 -72.641208 1.399361 14.696996 0.000000 0.000000 0.000000 0.000000 0.000000 0.000000 19.732882 13.353113 -3.578152 -22.144638 16.400572 1.065406 -11.484966 1.501246 13.383606 14.065681 -31.619798 -26.055983 0.000000 0.000000 0.000000 0.000000 0.000000 0.000000 -1.874317 6.021695 12.594511 0.630766 -1.304718 5.570807 5.227888 -10.057975 -21.192758 0.000000 0.000000 0.000000 0.426400 4.480018 13.649426 -0.177738 -1.012989 3.418520 -9.685208 9.400601 41.479382 0.000000 0.000000 0.000000
-67.291886 33.037954 349.618078 -0.658113 -2.826825 -17.734763 -0.576760 -0.741127 17.678127 -0.295696 -0.214454 -0.063041 19.214524 -0.106540 1.651300 0.000000 0.000000 0.000000 13.612135 11.570904 -6.361269 -1.505986 14.594733 13.719308 31.131874 19.907651 12.173278 -70.786505 1.329043 15.882063 0.000000 0.000000 0.000000 0.000000 0.000000 0.000000 19.162085 14.436578 -3.473563 -21.388537 15.336685 0.641387 -11.140540 3.308859 12.907993 15.700331 -30.285278 -29.074616 0.000000 0.000000 0.000000 0.000000 0.000000 0.000000 -1.838969 6.015775 12.869407 0.613162 -1.200113 5.582151 5.063188 -19.376789 -31.510054 0.000000 0.000000 0.000000 0.482080 4.597526 14.037647 -0.034083 -0.966821 3.225696 -7.601745 10.370241 37.328906 0.000000 0.000000 0.000000
-67.311434 33.033500 349.661668 -0.793305 -2.819803 -17.902792 -0.551795 -0.701637 17.839560 -0.326897 -0.129869 -0.068017 19.369008 -0.588107 1.807718 0.000000 0.000000 0.000000 14.054620 11.774743 -6.543091 -1.802033 15.106079 14.413365 29.016662 17.340957 11.832198 -67.056139 1.405890 20.968149 0.000000 0.000000 0.000000 0.000000 0.000000 0.000000 18.887793 15.586529 -3.379679 -20.962501 13.935706 0.399627 -11.000603 5.404782 12.692861 16.794319 -29.759010 -30.706258 0.000000 0.000000 0.000000 0.000000 0.000000 0.000000 -1.721031 6.029779 13.019695 0.660357 -1.228996 5.578188 2.332903 -30.447383 -46.831263 0.000000 0.000000 0.000000 0.620472 4.677279 14.232560 0.048043 -0.937675 3.144442 -5.186389 11.241782 32.768613 0.000000 0.000000 0.000000
-67.349583 33.036223 349.701424 -0.923400 -2.814054 -18.011347 -0.505516 -0.664128 17.941875 -0.327942 -0.071240 -0.070756 19.434290 -0.888188 1.903656 0.000000 0.000000 0.000000 13.853065 9.988032 -6.039020 -1.843958 18.728993 15.458107 25.386297 13.419787 11.065553 -62.911271 0.952678 24.257958 0.000000 0.000000 0.000000 0.000000 0.000000 0.000000 18.725759 16.473016 -3.326529 -20.903597 12.855745 0.420631 -11.239240 5.937452 12.999420 14.111884 -26.353783 -26.156493 0.000000 0.000000 0.000000 0.000000 0.000000 0.000000 -1.589653 6.018537 13.148129 0.765544 -1.198320 5.535798 2.038407 -31.756190 -53.284923 0.000000 0.000000 0.000000 0.756770 4.754251 14.338561 0.155955 -0.927488 3.092785 -7.328030 10.478703 36.413063 0.000000 0.000000 0.000000
-67.427657 33.037278 349.693093 -1.105766 -2.731357 -18.028125 -0.422612 -0.675329 17.949530 -0.376441 0.010221 -0.076562 19.676899 -1.253272 2.031488 0.000000 0.000000 0.000000 13.687117 8.414229 -5.561095 -1.558053 21.688209 16.016867 23.696074 10.479118 10.379042 -62.879553 1.496437 28.140565 0.000000 0.000000 0.000000 0.000000 0.000000 0.000000 18.821722 16.784728 -3.284450 -21.110971 12.487574 0.607650 -11.948749 5.697362 13.804027 7.795882 -21.137702 -16.234528 0.000000 0.000000 0.000000 0.000000 0.000000 0.000000 -1.383819 5.950952 13.055692 0.835483 -1.268030 5.598235 6.917261 -22.082616 -47.490149 0.000000 0.000000 0.000000 0.978722 4.784289 14.235378 0.252469 -0.952159 3.164949 -7.500780 10.468742 36.547587 0.000000 0.000000 0.000000
-67.487271 33.048168 349.711121 -1.182310 -2.738429 -17.886587 -0.360498 -0.633973 17.804704 -0.336016 0.027631 -0.074802 19.563253 -1.336509 2.050097 0.000000 0.000000 0.000000 13.103670 7.341965 -5.103571 -1.379320 23.328121 16.399568 22.792744 9.265891 9.861979 -61.435479 1.337228 29.080031 0.000000 0.000000 0.000000 0.000000 0.000000 0.000000 18.898473 16.529109 -3.299755 -21.455547 12.926352 0.878583 -13.085852 4.321400 15.041360 5.128121 -14.859084 -12.470380 0.000000 0.000000 0.000000 0.000000 0.000000 0.000000 -1.279327 5.910761 12.827056 0.890282 -1.297116 5.646268 8.309379 -18.215601 -45.214194 0.000000 0.000000 0.000000 1.068068 4.826752 14.008216 0.289394 -0.967280 3.235061 -6.756380 12.267956 37.417066 0.000000 0.000000 0.000000
-67.521048 33.061997 349.749267 -1.168366 -2.807443 -17.661849 -0.308554 -0.572224 17.581130 -0.208611 -0.013276 -0.066191 19.168159 -1.126812 1.961507 0.000000 0.000000 0.000000 12.318102 7.657720 -4.928145 -0.893588 22.759271 16.195445 23.585132 9.866027 9.977104 -60.375279 0.944220 27.075936 0.000000 0.000000 0.000000 0.000000 0.000000 0.000000 18.785507 16.169742 -3.337489 -21.550786 13.602195 0.940269 -13.671257 2.313601 15.678295 -1.775858 -17.946556 -0.172339 0.000000 0.000000 0.000000 0.000000 0.000000 0.000000 -1.287570 5.943555 12.496799 0.862789 -1.472622 5.703017 8.717204 -15.661778 -42.186751 0.000000 0.000000 0.000000 1.041732 4.860985 13.760136 0.284982 -1.028380 3.285881 -7.184131 11.780448 37.629815 0.000000 0.000000 0.000000
-67.505132 33.073451 349.823274 -1.053624 -2.938311 -17.539577 -0.333705 -0.490650 17.465023 -0.080389 -0.056124 -0.055928 18.704713 -0.892037 1.862210 0.000000 0.000000 0.000000 11.787446 7.086846 -4.699963 -1.588257 22.644366 16.529607 26.386584 11.459159 10.070929 -58.648359 0.193060 23.481583 0.000000 0.000000 0.000000 0.000000 0.000000 0.000000 18.602951 15.746812 -3.368091 -21.565821 14.307178 0.973585 -13.936941 0.222540 15.998281 -1.329845 -22.017416 1.319088 0.000000 0.000000 0.000000 0.000000 0.000000 0.000000 -1.434262 6.052984 12.328344 0.790785 -1.649946 5.726131 9.339150 1.355554 -25.746913 0.000000 0.000000 0.000000 0.880907 4.901774 13.743234 0.238124 -1.093604 3.234498 -8.216738 9.514438 36.615415 0.000000 0.000000 0.000000
-67.472925 33.084541 349.917498 -0.926112 -3.101539 -17.449248 -0.384296 -0.395783 17.381649 0.019093 -0.099927 -0.047113 18.315634 -0.702833 1.782096 0.000000 0.000000 0.000000 11.248072 5.868785 -4.324776 -2.128814 23.573440 16.875511 29.920685 12.704342 10.159161 -56.854162 -0.825519 19.517774 0.000000 0.000000 0.000000 0.000000 0.000000 0.000000 18.503881 15.307821 -3.411911 -21.346896 14.683509 0.738985 -15.270282 -2.730750 17.497583 5.566073 -21.918694 -9.953361 0.000000 0.000000 0.000000 0.000000 0.000000 0.000000 -1.603987 6.185375 12.203247 0.667941 -1.717032 5.771121 8.069014 -0.860438 -23.459082 0.000000 0.000000 0.000000 0.680551 4.938447 13.815867 0.218181 -1.130416 3.125988 -9.436126 6.007829 33.629327 0.000000 0.000000 0.000000
-67.420982 33.094327 350.015398 -0.784142 -3.270427 -17.403878 -0.470361 -0.291303 17.344539 0.083972 -0.132177 -0.040402 18.018565 -0.566483 1.724222 0.000000 0.000000 0.000000 10.023943 3.721651 -3.472087 -1.580273 25.338079 16.484452 32.754852 15.928193 10.712143 -55.623067 -3.170045 13.051774 0.000000 0.000000 0.000000 0.000000 0.000000 0.000000 18.335053 15.245993 -3.430499 -21.228943 14.957739 0.640278 -15.437344 -4.950548 17.770635 9.662016 -23.038248 -17.535276 0.000000 0.000000 0.000000 0.000000 0.000000 0.000000 -1.821033 6.400425 12.130147 0.535937 -1.887494 5.812135 6.081743 3.429899 -15.312746 0.000000 0.000000 0.000000 0.468285 4.992024 13.951143 0.186636 -1.144389 2.991216 -13.087101 -1.586930 27.637500 0.000000 0.000000 0.000000
